<?xml version="1.0" encoding="iso-8859-1"?>
<!-- Generator: Adobe Illustrator 19.0.0, SVG Export Plug-In . SVG Version: 6.00 Build 0)  -->
<svg version="1.1" id="Layer_1" xmlns="http://www.w3.org/2000/svg" xmlns:xlink="http://www.w3.org/1999/xlink" x="0px" y="0px"
	 viewBox="0 0 512 512" style="enable-background:new 0 0 512 512;" xml:space="preserve">
<g>
	<g>
		<path d="M454.69,161.886l-86.972-86.98c-6.272-6.281-16.264-6.63-22.946-1.084l-17.604,8.806l-6.912-6.912l9.37-18.705
			c5.751-11.81,0.811-19.379-2.654-22.852L297.805,5.001C294.588,1.775,290.304,0,285.739,0h-0.017
			c-4.557,0-8.841,1.775-12.049,5.001l-72.405,72.405c-3.226,3.217-5.001,7.509-5.001,12.066c0,4.557,1.775,8.841,5.001,12.066
			l29.286,29.286c3.413,3.422,10.914,8.294,22.801,2.492l18.628-9.327l6.912,6.912l-8.806,17.604
			c-2.534,3.046-3.917,6.861-3.917,10.88c0,4.557,1.775,8.841,5.001,12.066l34.697,34.688c3.328,3.328,8.73,3.328,12.066,0
			c3.328-3.337,3.328-8.738,0-12.066l-34.697-34.688c0.657-0.649,1.195-1.399,1.604-2.219l12.066-24.141
			c1.638-3.285,0.998-7.253-1.604-9.847l-15.607-15.607c-2.594-2.594-6.579-3.217-9.847-1.596l-24.064,12.041
			c-2.133,1.05-2.987,0.939-3.166,0.742l-29.286-29.286l72.405-72.405l29.431,29.474c0,0.008,0.145,0.862-0.853,2.91l-12.075,24.141
			c-1.638,3.277-0.998,7.253,1.596,9.847l15.607,15.599c2.611,2.603,6.579,3.234,9.856,1.604l24.132-12.066
			c0.819-0.418,1.57-0.947,2.219-1.604l87.552,87.509c0.521,0.435,51.729,43.537,51.729,90.052c0,18.671,0,31.889-6.46,50.475
			c-21.786-71.108-63.744-99.029-65.698-100.301c-2.398-1.562-5.427-1.809-8.047-0.666l-50.441,22.007
			c-2.628,1.152-4.113,1.109-4.241,1.135l-21.197-21.333c-1.596-1.621-3.678-2.901-6.05-2.517c-2.27,0-4.437,0.896-6.033,2.5
			L53.35,489.267c-1.417,1.579-6.101,5.666-10.684,5.666c-4.71,0-9.242-4.011-11.034-6.033l-8.9-8.883
			c-1.579-1.417-5.666-6.101-5.666-10.684c0-4.489,4.233-9.378,6.033-11.034l251.665-251.665c3.337-3.337,3.337-8.738,0-12.066
			c-3.328-3.337-8.73-3.337-12.066,0L11.392,445.892C10.223,446.933,0,456.414,0,469.333c0,13.099,10.274,22.46,11.034,23.1
			l8.047,8.004C20.07,501.623,29.227,512,42.667,512c13.099,0,22.46-10.274,23.1-11.034L332.783,233.95l15.181,15.283
			c5.572,5.572,14.012,6.477,23.159,2.449l45.858-20.011c11.307,9.165,46.797,42.615,61.056,111.394
			c0.742,3.558,3.652,6.255,7.262,6.733c3.55,0.427,7.108-1.399,8.73-4.651C512,309.214,512,290.475,512,264.533
			C512,209.946,456.465,163.302,454.69,161.886z"/>
	</g>
</g>
<g>
</g>
<g>
</g>
<g>
</g>
<g>
</g>
<g>
</g>
<g>
</g>
<g>
</g>
<g>
</g>
<g>
</g>
<g>
</g>
<g>
</g>
<g>
</g>
<g>
</g>
<g>
</g>
<g>
</g>
</svg>
